<?xml version="1.0" standalone="no"?><!DOCTYPE svg PUBLIC "-//W3C//DTD SVG 1.1//EN" "http://www.w3.org/Graphics/SVG/1.1/DTD/svg11.dtd"><svg class="icon" width="200px" height="200.00px" viewBox="0 0 1024 1024" version="1.1" xmlns="http://www.w3.org/2000/svg"><path d="M334.769231 256h230.203077q188.455385 0 188.455384 162.264615t-189.243077 163.052308h-180.578461V821.169231H334.769231z m48.246154 42.732308v239.852307h177.230769A167.187692 167.187692 0 0 0 669.538462 508.455385a114.215385 114.215385 0 0 0 34.067692-90.19077 110.670769 110.670769 0 0 0-34.067692-88.615384q-35.643077-30.916923-108.504616-30.916923z" fill="#3295FC" /><path d="M393.846154 831.015385h-68.332308V246.153846h239.458462c131.544615 0 198.301538 57.895385 198.301538 172.110769S696.123077 590.769231 564.184615 590.769231H393.846154z m-48.246154-19.692308H374.153846V571.076923h190.424616c120.713846 0 179.396923-50.215385 179.396923-153.206154s-59.076923-152.418462-178.609231-152.418461H345.206154z m216.615385-262.892308H374.153846V288.886154h187.864616c50.806154 0 89.403077 11.224615 115.003076 33.28a120.32 120.32 0 0 1 37.415385 96.098461 124.061538 124.061538 0 0 1-37.415385 98.461539 177.230769 177.230769 0 0 1-115.396923 31.704615z m-168.172308-19.692307h168.172308a158.72 158.72 0 0 0 102.203077-27.766154 105.353846 105.353846 0 0 0 30.523076-82.707693 100.430769 100.430769 0 0 0-30.523076-81.132307c-21.858462-19.692308-56.123077-28.553846-102.006154-28.553846H393.846154z" fill="#3295FC" /><path d="M145.506462 187.273846l41.747692-41.767384 691.377231 691.357538-41.787077 41.767385z" fill="#F8AD4B" /><path d="M512 59.076923A452.923077 452.923077 0 1 1 59.076923 512 452.923077 452.923077 0 0 1 512 59.076923m0-59.076923a512 512 0 1 0 512 512A512 512 0 0 0 512 0z" fill="#3295FC" /></svg>