<svg t="1681217290638" class="icon" viewBox="0 0 1024 1024" version="1.1" xmlns="http://www.w3.org/2000/svg" p-id="5171" width="499" height="499"><path d="M640 426.666667c0-106.666667-85.333333-192-192-192S256 320 256 426.666667c0 89.6 64 166.4 149.333333 187.733333V768c-8.533333 0-17.066667-4.266667-25.6-4.266667-153.6-34.133333-273.066667-170.666667-273.066666-332.8 0-187.733333 153.6-341.333333 341.333333-341.333333s341.333333 153.6 341.333333 341.333333c0 64-17.066667 123.733333-46.933333 170.666667 29.866667-8.533333 59.733333-17.066667 93.866667-17.066667h8.533333c21.333333-46.933333 29.866667-102.4 29.866667-157.866666 0-234.666667-192-426.666667-426.666667-426.666667S21.333333 192 21.333333 426.666667c0 115.2 46.933333 221.866667 123.733334 298.666666 76.8 81.066667 273.066667 281.6 273.066666 281.6 4.266667 4.266667 8.533333 8.533333 12.8 8.533334 4.266667 4.266667 12.8 4.266667 17.066667 4.266666s12.8 0 17.066667-4.266666c4.266667-4.266667 8.533333-4.266667 12.8-8.533334 0 0 38.4-38.4 85.333333-89.6-4.266667-21.333333-8.533333-38.4-8.533333-59.733333 0-42.666667 8.533333-85.333333 29.866666-123.733333-21.333333 8.533333-46.933333 17.066667-68.266666 21.333333-8.533333 0-17.066667 4.266667-25.6 4.266667v-153.6c85.333333-12.8 149.333333-89.6 149.333333-179.2z m-192 106.666666C388.266667 533.333333 341.333333 486.4 341.333333 426.666667s46.933333-106.666667 106.666667-106.666667S554.666667 366.933333 554.666667 426.666667s-46.933333 106.666667-106.666667 106.666666zM814.933333 972.8c46.933333 12.8 98.133333 34.133333 132.266667 51.2l29.866667-38.4c-34.133333-17.066667-85.333333-38.4-132.266667-51.2l-29.866667 38.4z" p-id="5172" fill="#d81e06"></path><path d="M721.066667 844.8c-8.533333 12.8-17.066667 21.333333-21.333334 25.6-12.8 12.8-17.066667 17.066667-29.866666 21.333333 4.266667 12.8 12.8 34.133333 17.066666 42.666667 8.533333-4.266667 25.6-8.533333 106.666667-21.333333 0-8.533333-4.266667-29.866667 0-42.666667l-42.666667 4.266667c21.333333-21.333333 38.4-46.933333 51.2-72.533334 8.533333 8.533333 12.8 17.066667 17.066667 21.333334 8.533333-8.533333 17.066667-17.066667 25.6-21.333334 4.266667 8.533333 12.8 17.066667 17.066667 25.6-21.333333 17.066667-46.933333 25.6-76.8 34.133334 8.533333 8.533333 25.6 29.866667 29.866666 38.4 25.6-8.533333 55.466667-25.6 81.066667-42.666667 21.333333 17.066667 46.933333 34.133333 72.533333 42.666667 8.533333-12.8 21.333333-34.133333 34.133334-42.666667-25.6-8.533333-51.2-17.066667-72.533334-34.133333 21.333333-25.6 42.666667-51.2 55.466667-81.066667l-29.866667-17.066667H896c4.266667-8.533333 8.533333-12.8 8.533333-21.333333l-51.2-4.266667c-12.8 29.866667-29.866667 59.733333-64 85.333334l-21.333333-12.8c-4.266667 12.8-12.8 21.333333-17.066667 34.133333h-21.333333c17.066667-25.6 38.4-59.733333 51.2-89.6l-46.933333-21.333333c-12.8 38.4-34.133333 81.066667-42.666667 89.6-8.533333 12.8-12.8 17.066667-21.333333 21.333333 4.266667 12.8 12.8 34.133333 17.066666 46.933333 0 0 8.533333-4.266667 34.133334-8.533333z m196.266666-72.533333c-8.533333 8.533333-12.8 17.066667-21.333333 29.866666-8.533333-8.533333-17.066667-17.066667-21.333333-29.866666h42.666666zM669.866667 964.266667l8.533333 46.933333c38.4-8.533333 85.333333-17.066667 128-25.6l-4.266667-42.666667c-46.933333 8.533333-98.133333 17.066667-132.266666 21.333334z" p-id="5173" fill="#d81e06"></path><path d="M849.066667 917.333333c25.6 8.533333 59.733333 25.6 76.8 38.4l25.6-34.133333c-17.066667-12.8-51.2-25.6-76.8-34.133333l-25.6 29.866666z" p-id="5174" fill="#d81e06"></path></svg>