<svg t="1681217189110" class="icon" viewBox="0 0 1024 1024" version="1.1" xmlns="http://www.w3.org/2000/svg" p-id="4013" width="499" height="499"><path d="M640 426.666667c0-106.666667-85.333333-192-192-192S256 320 256 426.666667c0 89.6 64 166.4 149.333333 187.733333V768c-8.533333 0-17.066667-4.266667-25.6-4.266667-153.6-34.133333-273.066667-170.666667-273.066666-332.8 0-187.733333 153.6-341.333333 341.333333-341.333333s341.333333 153.6 341.333333 341.333333c0 64-17.066667 123.733333-46.933333 170.666667 29.866667-8.533333 59.733333-17.066667 93.866667-17.066667h8.533333c21.333333-46.933333 29.866667-102.4 29.866667-157.866666 0-234.666667-192-426.666667-426.666667-426.666667S21.333333 192 21.333333 426.666667c0 115.2 46.933333 221.866667 123.733334 298.666666 76.8 81.066667 273.066667 281.6 273.066666 281.6 4.266667 4.266667 8.533333 8.533333 12.8 8.533334 4.266667 4.266667 12.8 4.266667 17.066667 4.266666s12.8 0 17.066667-4.266666c4.266667-4.266667 8.533333-4.266667 12.8-8.533334 0 0 38.4-38.4 85.333333-89.6-4.266667-21.333333-8.533333-38.4-8.533333-59.733333 0-42.666667 8.533333-85.333333 29.866666-123.733333-21.333333 8.533333-46.933333 17.066667-68.266666 21.333333-8.533333 0-17.066667 4.266667-25.6 4.266667v-153.6c85.333333-12.8 149.333333-89.6 149.333333-179.2z m-192 106.666666C388.266667 533.333333 341.333333 486.4 341.333333 426.666667s46.933333-106.666667 106.666667-106.666667S554.666667 366.933333 554.666667 426.666667s-46.933333 106.666667-106.666667 106.666666zM977.066667 832v-128h-132.266667v42.666667h85.333333v42.666666h-81.066666v93.866667c0 42.666667 12.8 55.466667 55.466666 55.466667h42.666667c34.133333 0 46.933333-12.8 51.2-68.266667-12.8-4.266667-34.133333-8.533333-42.666667-17.066667 0 38.4-4.266667 42.666667-12.8 42.666667h-29.866666c-12.8 0-12.8 0-12.8-12.8v-51.2h76.8z" p-id="4014" fill="#1afa29"></path><path d="M853.333333 964.266667c-21.333333 0-42.666667 0-59.733333-4.266667v-46.933333h42.666667v-42.666667h-42.666667v-29.866667h46.933333v-42.666666h-55.466666V768h46.933333v-42.666667h-46.933333v-29.866666h-46.933334v29.866666h-46.933333v42.666667h46.933333v25.6H682.666667v42.666667h68.266666v89.6c-4.266667-8.533333-8.533333-17.066667-17.066666-29.866667v-42.666667h-46.933334c0 59.733333-4.266667 115.2-17.066666 149.333334 12.8 4.266667 34.133333 12.8 42.666666 21.333333 4.266667-17.066667 8.533333-34.133333 12.8-55.466667 25.6 34.133333 68.266667 42.666667 128 42.666667h132.266667c4.266667-17.066667 12.8-38.4 17.066667-51.2-38.4 4.266667-119.466667 4.266667-149.333334 4.266667z" p-id="4015" fill="#1afa29"></path></svg>