<?xml version="1.0" encoding="utf-8"?>
<svg version="1.1" xmlns:xlink="http://www.w3.org/1999/xlink" width="670px" height="420px" xmlns="http://www.w3.org/2000/svg">
  <defs>
    <mask fill="white" id="clip283">
      <path d="M 669.202380952381 16.6083650190114  C 669.202380952381 16.6083650190114  654.047619047619 1.43726235741446  654.047619047619 1.43726235741446  C 654.047619047619 1.43726235741446  15.952380952381 1.43726235741446  15.952380952381 1.43726235741446  C 15.952380952381 1.43726235741446  0.797619047619048 16.6083650190114  0.797619047619048 16.6083650190114  C 0.797619047619048 16.6083650190114  0.797619047619048 403.71102661597  0.797619047619048 403.71102661597  C 0.797619047619048 403.71102661597  15.952380952381 418.882129277566  15.952380952381 418.882129277566  C 15.952380952381 418.882129277566  654.047619047619 418.882129277566  654.047619047619 418.882129277566  C 654.047619047619 418.882129277566  669.202380952381 403.71102661597  669.202380952381 403.71102661597  C 669.202380952381 403.71102661597  669.202380952381 16.6083650190114  669.202380952381 16.6083650190114  Z " fill-rule="evenodd" />
    </mask>
  </defs>
  <g transform="matrix(1 0 0 1 0 -10 )">
    <path d="M 669.202380952381 16.6083650190114  C 669.202380952381 16.6083650190114  654.047619047619 1.43726235741446  654.047619047619 1.43726235741446  C 654.047619047619 1.43726235741446  15.952380952381 1.43726235741446  15.952380952381 1.43726235741446  C 15.952380952381 1.43726235741446  0.797619047619048 16.6083650190114  0.797619047619048 16.6083650190114  C 0.797619047619048 16.6083650190114  0.797619047619048 403.71102661597  0.797619047619048 403.71102661597  C 0.797619047619048 403.71102661597  15.952380952381 418.882129277566  15.952380952381 418.882129277566  C 15.952380952381 418.882129277566  654.047619047619 418.882129277566  654.047619047619 418.882129277566  C 654.047619047619 418.882129277566  669.202380952381 403.71102661597  669.202380952381 403.71102661597  C 669.202380952381 403.71102661597  669.202380952381 16.6083650190114  669.202380952381 16.6083650190114  Z " fill-rule="nonzero" fill="#000033" stroke="none" fill-opacity="0.498039215686275" transform="matrix(1 0 0 1 0 10 )" />
    <path d="M 669.202380952381 16.6083650190114  C 669.202380952381 16.6083650190114  654.047619047619 1.43726235741446  654.047619047619 1.43726235741446  C 654.047619047619 1.43726235741446  15.952380952381 1.43726235741446  15.952380952381 1.43726235741446  C 15.952380952381 1.43726235741446  0.797619047619048 16.6083650190114  0.797619047619048 16.6083650190114  C 0.797619047619048 16.6083650190114  0.797619047619048 403.71102661597  0.797619047619048 403.71102661597  C 0.797619047619048 403.71102661597  15.952380952381 418.882129277566  15.952380952381 418.882129277566  C 15.952380952381 418.882129277566  654.047619047619 418.882129277566  654.047619047619 418.882129277566  C 654.047619047619 418.882129277566  669.202380952381 403.71102661597  669.202380952381 403.71102661597  C 669.202380952381 403.71102661597  669.202380952381 16.6083650190114  669.202380952381 16.6083650190114  Z " stroke-width="2" stroke="#13e4e6" fill="none" transform="matrix(1 0 0 1 0 10 )" mask="url(#clip283)" />
  </g>
</svg>