<?xml version="1.0" standalone="no"?><!DOCTYPE svg PUBLIC "-//W3C//DTD SVG 1.1//EN" "http://www.w3.org/Graphics/SVG/1.1/DTD/svg11.dtd"><svg class="icon" width="200px" height="200.00px" viewBox="0 0 1024 1024" version="1.1" xmlns="http://www.w3.org/2000/svg"><path fill="#333333" d="M468.1 792h-47.2l-4.4-8.3c-7.2-13.5-21-21.9-36.1-21.9-15 0-28.8 8.4-36.1 21.9l-4.4 8.3h-47.2c-5.9 0-10.9 5-10.9 10.9 0 6 4.9 10.9 10.9 10.9h47.2l4.4 8.3c7.2 13.5 21.1 21.9 36.1 21.9s28.8-8.4 36.1-21.9l4.4-8.3h47.2c6 0 10.9-4.9 10.9-10.9s-4.8-10.9-10.9-10.9z"  /><path fill="#333333" d="M1019 417.8C1019 206.7 847.3 35 636.2 35c-164.9 0-305.7 104.9-359.4 251.4-155.8 45-270 188.9-270 359 0 206 167.6 373.6 373.6 373.6 154.7 0 287.8-94.5 344.4-228.9 168.5-40 294.2-191.8 294.2-372.3zM380.4 959.9C207 959.9 65.9 818.8 65.9 645.4c0-130.2 79.6-242.2 192.7-289.9 16.3-6.9 33.3-12.4 50.9-16.5 22.8-5.3 46.5-8.1 70.9-8.1 173.4 0 314.5 141.1 314.5 314.5 0 34.4-5.6 67.6-15.9 98.6h-0.1c-6.5 19.6-14.9 38.4-24.9 56.1h0.1C600 895.4 497.6 959.9 380.4 959.9z m364.3-231.5c6.1-26.7 9.3-54.5 9.3-83 0-206-167.6-373.6-373.6-373.6-13.6 0-26.9 0.7-40.1 2.1 53.5-109.6 166-185.3 296-185.3 181.5 0 329.1 147.6 329.1 329.1-0.1 143.5-92.4 265.8-220.7 310.7z"  /><path fill="#333333" d="M380.4 375C231.3 375 110 496.3 110 645.4c0 149.1 121.3 270.4 270.4 270.4s270.4-121.3 270.4-270.4c0-149.1-121.3-270.4-270.4-270.4z m87.7 470.3h-29.2c-13.5 18.8-35.2 30.2-58.6 30.2s-45-11.4-58.6-30.2h-29.2c-23.3 0-42.3-19-42.3-42.3 0-23.3 19-42.3 42.3-42.3h29.2c13.5-18.8 35.2-30.2 58.6-30.2s45 11.4 58.6 30.2h27.5c11 5.5 22.3 10.4 33.8 14.8 6.4 7.4 10.2 17 10.2 27.5 0 23.3-19 42.3-42.3 42.3z"  /></svg>